<svg width="30" height="30" viewBox="0 0 30 30" fill="none" xmlns="http://www.w3.org/2000/svg">
<path fill-rule="evenodd" clip-rule="evenodd" d="M16.8826 14.9983L24.2536 7.62733C24.773 7.1079 24.773 6.26447 24.2536 5.74504C23.7341 5.22561 22.8907 5.22561 22.3713 5.74504L15.0003 13.116L7.62928 5.74504C7.10985 5.22561 6.26642 5.22561 5.74699 5.74504C5.22756 6.26447 5.22756 7.1079 5.74699 7.62733L13.118 14.9983L5.74699 22.3693C5.22756 22.8888 5.22756 23.7322 5.74699 24.2516C6.26642 24.771 7.10985 24.771 7.62928 24.2516L15.0003 16.8806L22.3713 24.2516C22.8907 24.771 23.7341 24.771 24.2536 24.2516C24.773 23.7322 24.773 22.8888 24.2536 22.3693L16.8826 14.9983Z" fill="white"/>
<mask id="mask0_538_4194" style="mask-type:luminance" maskUnits="userSpaceOnUse" x="5" y="5" width="20" height="20">
<path fill-rule="evenodd" clip-rule="evenodd" d="M16.8826 14.9983L24.2536 7.62733C24.773 7.1079 24.773 6.26447 24.2536 5.74504C23.7341 5.22561 22.8907 5.22561 22.3713 5.74504L15.0003 13.116L7.62928 5.74504C7.10985 5.22561 6.26642 5.22561 5.74699 5.74504C5.22756 6.26447 5.22756 7.1079 5.74699 7.62733L13.118 14.9983L5.74699 22.3693C5.22756 22.8888 5.22756 23.7322 5.74699 24.2516C6.26642 24.771 7.10985 24.771 7.62928 24.2516L15.0003 16.8806L22.3713 24.2516C22.8907 24.771 23.7341 24.771 24.2536 24.2516C24.773 23.7322 24.773 22.8888 24.2536 22.3693L16.8826 14.9983Z" fill="white"/>
</mask>
<g mask="url(#mask0_538_4194)">
</g>
</svg>
