<svg width="24" height="24" viewBox="0 0 24 24" fill="none" xmlns="http://www.w3.org/2000/svg">
<path d="M22.7845 12C22.7845 17.9785 18.4868 22.843 13.1329 22.9963C13.0464 22.9988 11.0968 23 11.0097 23C5.53543 23 1.09766 18.0751 1.09766 12C1.09766 5.92486 5.53543 1 11.0097 1C11.0832 1 13.0193 1.0009 13.0925 1.00266C18.4652 1.13251 22.7845 6.00647 22.7845 12Z" fill="#FFB638"/>
<path d="M22.9062 12C22.9062 18.0751 18.4684 23 12.9941 23C7.51981 23 3.08203 18.0751 3.08203 12C3.08203 5.92486 7.51981 1 12.9941 1C18.4684 1 22.9062 5.92486 22.9062 12Z" fill="#FFDC48"/>
<mask id="mask0_538_3412" style="mask-type:alpha" maskUnits="userSpaceOnUse" x="3" y="1" width="20" height="22">
<path d="M22.9062 12C22.9062 18.0751 18.4684 23 12.9941 23C7.51981 23 3.08203 18.0751 3.08203 12C3.08203 5.92486 7.51981 1 12.9941 1C18.4684 1 22.9062 5.92486 22.9062 12Z" fill="black"/>
</mask>
<g mask="url(#mask0_538_3412)">
<g opacity="0.5">
<path d="M36.0643 8.39344L15.6211 -12.0498L19.958 -16.3867L40.4013 4.05652L36.0643 8.39344Z" fill="white"/>
<path d="M30.6737 13.7841L10.2305 -6.65917L14.5674 -10.9961L35.0106 9.44715L30.6737 13.7841Z" fill="white"/>
</g>
</g>
<path d="M21.6448 11.9984C21.6448 17.3004 17.7718 21.5984 12.9943 21.5984C8.21672 21.5984 4.34375 17.3004 4.34375 11.9984C4.34375 6.6965 8.21672 2.39844 12.9943 2.39844C17.7718 2.39844 21.6448 6.6965 21.6448 11.9984Z" fill="#FA8921"/>
<mask id="mask1_538_3412" style="mask-type:alpha" maskUnits="userSpaceOnUse" x="4" y="2" width="18" height="20">
<path d="M21.6448 11.9984C21.6448 17.3004 17.7718 21.5984 12.9943 21.5984C8.21672 21.5984 4.34375 17.3004 4.34375 11.9984C4.34375 6.6965 8.21672 2.39844 12.9943 2.39844C17.7718 2.39844 21.6448 6.6965 21.6448 11.9984Z" fill="#FFB638"/>
</mask>
<g mask="url(#mask1_538_3412)">
<path d="M20.2034 11.9984C20.2034 17.3004 16.3304 21.5984 11.5529 21.5984C6.77531 21.5984 2.90234 17.3004 2.90234 11.9984C2.90234 6.6965 6.77531 2.39844 11.5529 2.39844C16.3304 2.39844 20.2034 6.6965 20.2034 11.9984Z" fill="#FFB638"/>
</g>
<path d="M16.1271 6.30078H9.38689C9.20774 6.30078 9.0625 6.46196 9.0625 6.66078V7.4745C9.0625 7.67332 9.20774 7.8345 9.38689 7.8345H10.9921C11.7765 7.8345 12.3831 8.04228 12.8119 8.45758C13.0909 8.72792 13.2791 9.0838 13.3765 9.52508H9.38689C9.20774 9.52508 9.0625 9.68626 9.0625 9.88508V10.6988C9.0625 10.8976 9.20774 11.0588 9.38689 11.0588H13.3844C13.2895 11.5167 13.0987 11.8799 12.8119 12.1481C12.3831 12.5489 11.7765 12.7494 10.9921 12.7494H9.38689C9.20774 12.7494 9.0625 12.9105 9.0625 13.1094V13.9231C9.0625 14.1219 9.20774 14.2831 9.38689 14.2831H11.2117C11.3083 14.2831 11.4032 14.2808 11.497 14.2769L13.9458 18.1595C14.0807 18.3734 14.3012 18.5008 14.5364 18.5008H15.8195C16.0388 18.5008 16.1668 18.2263 16.0402 18.0276L13.378 13.8486C13.3945 13.8409 13.4113 13.8335 13.4276 13.8256C14.0577 13.5206 14.5466 13.0849 14.8945 12.5184C15.1547 12.0945 15.3175 11.608 15.383 11.0588H16.1271C16.3063 11.0588 16.4515 10.8976 16.4515 10.6988V9.88508C16.4515 9.68626 16.3063 9.52508 16.1271 9.52508H15.3205C15.2507 9.19652 15.1429 8.8928 14.9964 8.61442C14.8455 8.32774 14.6597 8.06796 14.4397 7.8345H16.1271C16.3063 7.8345 16.4515 7.67332 16.4515 7.4745V6.66078C16.4515 6.46196 16.3063 6.30078 16.1271 6.30078Z" fill="#FA8921"/>
<path d="M17.2384 6.30078H10.4982C10.3191 6.30078 10.1738 6.46196 10.1738 6.66078V7.4745C10.1738 7.67332 10.3191 7.8345 10.4982 7.8345H12.1034C12.8878 7.8345 13.4944 8.04228 13.9232 8.45758C14.2022 8.72792 14.3904 9.0838 14.4879 9.52508H10.4982C10.3191 9.52508 10.1738 9.68626 10.1738 9.88508V10.6988C10.1738 10.8976 10.3191 11.0588 10.4982 11.0588H14.4958C14.4008 11.5167 14.21 11.8799 13.9232 12.1481C13.4944 12.5489 12.8878 12.7494 12.1034 12.7494H10.4982C10.3191 12.7494 10.1738 12.9105 10.1738 13.1094V13.9231C10.1738 14.1219 10.3191 14.2831 10.4982 14.2831H12.3231C12.4196 14.2831 12.5146 14.2808 12.6083 14.2769L15.0572 18.1595C15.1921 18.3734 15.4125 18.5008 15.6477 18.5008H16.9308C17.1501 18.5008 17.2781 18.2263 17.1516 18.0276L14.4893 13.8486C14.5058 13.8409 14.5226 13.8335 14.539 13.8256C15.1691 13.5206 15.658 13.0849 16.0058 12.5184C16.266 12.0945 16.4288 11.608 16.4943 11.0588H17.2384C17.4176 11.0588 17.5628 10.8976 17.5628 10.6988V9.88508C17.5628 9.68626 17.4176 9.52508 17.2384 9.52508H16.4318C16.362 9.19652 16.2542 8.8928 16.1078 8.61442C15.9569 8.32774 15.7711 8.06796 15.551 7.8345H17.2384C17.4176 7.8345 17.5628 7.67332 17.5628 7.4745V6.66078C17.5628 6.46196 17.4176 6.30078 17.2384 6.30078Z" fill="#FFDC48"/>
<mask id="mask2_538_3412" style="mask-type:luminance" maskUnits="userSpaceOnUse" x="0" y="0" width="25" height="24">
<path d="M0.994141 0H24.9941V24H0.994141V0Z" fill="white"/>
</mask>
<g mask="url(#mask2_538_3412)">
<path d="M18.6364 5.16914L18.6815 5.31528C18.6838 5.3228 18.6897 5.32869 18.6972 5.33101L18.8434 5.37608C18.8658 5.38299 18.8658 5.41468 18.8434 5.42159L18.6972 5.46666C18.6897 5.46898 18.6838 5.47487 18.6815 5.48239L18.6364 5.62853C18.6295 5.65092 18.5978 5.65092 18.5909 5.62853L18.5459 5.48239C18.5435 5.47487 18.5376 5.46898 18.5301 5.46666L18.384 5.42159C18.3616 5.41468 18.3616 5.38299 18.384 5.37608L18.5301 5.33101C18.5376 5.32869 18.5435 5.3228 18.5459 5.31528L18.5909 5.16914C18.5978 5.14675 18.6295 5.14675 18.6364 5.16914Z" fill="white"/>
<path d="M7.79831 16.1129L7.8077 16.1433C7.80818 16.1449 7.80941 16.1461 7.81098 16.1466L7.84144 16.156C7.84611 16.1574 7.84611 16.1641 7.84144 16.1655L7.81098 16.1749C7.80941 16.1754 7.80818 16.1766 7.8077 16.1782L7.79831 16.2086C7.79687 16.2133 7.79026 16.2133 7.78882 16.2086L7.77943 16.1782C7.77894 16.1766 7.77772 16.1754 7.77615 16.1749L7.74569 16.1655C7.74102 16.1641 7.74102 16.1574 7.74569 16.156L7.77615 16.1466C7.77772 16.1461 7.77894 16.1449 7.77943 16.1433L7.78882 16.1129C7.79026 16.1082 7.79687 16.1082 7.79831 16.1129Z" fill="white"/>
</g>
</svg>
