<svg width="30" height="22" viewBox="0 0 30 22" fill="none" xmlns="http://www.w3.org/2000/svg">
<path fill-rule="evenodd" clip-rule="evenodd" d="M28.5 4H22.3L19 0H11L7.7 4H1.5C0.671573 4 0 4.67157 0 5.5V20.5C0 21.3284 0.671573 22 1.5 22H28.5C29.3284 22 30 21.3284 30 20.5V5.5C30 4.67157 29.3284 4 28.5 4ZM15 19C13.1423 19.0057 11.3597 18.2674 10.05 16.95C8.74798 15.6136 8.02878 13.8157 8.05 11.95L7.3 12.7C7.06523 13.013 6.66946 13.1604 6.28714 13.0771C5.90482 12.9938 5.60621 12.6952 5.52292 12.3129C5.43963 11.9305 5.58697 11.5348 5.9 11.3L9 8.15L12.1 11.3C12.413 11.5348 12.5604 11.9305 12.4771 12.3129C12.3938 12.6952 12.0952 12.9938 11.7129 13.0771C11.3305 13.1604 10.9348 13.013 10.7 12.7L10.1 12.1C10.1102 13.3863 10.611 14.6203 11.5 15.55C13.0403 17.1101 15.4294 17.4573 17.35 16.4C17.8246 16.1973 18.3754 16.389 18.6216 16.8425C18.8678 17.2961 18.7285 17.8625 18.3 18.15C17.2892 18.7068 16.154 18.9992 15 19ZM24.1 12.7L21 15.85L17.9 12.7C17.587 12.4652 17.4396 12.0695 17.5229 11.6871C17.6062 11.3048 17.9048 11.0062 18.2871 10.9229C18.6695 10.8396 19.0652 10.987 19.3 11.3L19.9 11.9C19.8898 10.6137 19.389 9.37972 18.5 8.45C16.9597 6.88987 14.5706 6.54272 12.65 7.6C12.3347 7.81156 11.9268 7.82633 11.5971 7.63813C11.2674 7.44993 11.0726 7.09122 11.0944 6.71218C11.1163 6.33313 11.3508 5.99913 11.7 5.85C14.399 4.39838 17.7302 4.88587 19.9 7.05C21.202 8.38636 21.9212 10.1843 21.9 12.05L22.65 11.3C22.8848 10.987 23.2805 10.8396 23.6629 10.9229C24.0452 11.0062 24.3438 11.3048 24.4271 11.6871C24.5104 12.0695 24.363 12.4652 24.05 12.7H24.1Z" fill="white"/>
</svg>
