<svg width="97" height="55" viewBox="0 0 97 55" fill="none" xmlns="http://www.w3.org/2000/svg">
<g clip-path="url(#clip0_538_3899)">
<path d="M18.6189 17.0234C17.8736 17.1875 17.1658 17.7219 16.8189 18.3875C16.4814 19.0344 16.5002 18.5609 16.5002 25.6953C16.5002 31.9063 16.5049 32.1219 16.5892 32.2531C16.7346 32.4734 16.9127 32.5625 17.2127 32.5625H17.4752L18.9471 31.5172C19.7533 30.9453 20.7049 30.2656 21.0564 30.0125C22.0924 29.2766 21.4033 29.3563 26.9533 29.3281L31.7111 29.3047L32.0252 29.1828C32.8924 28.8453 33.5346 28.1141 33.7549 27.2188C33.8064 27.0078 33.8205 26.0609 33.8205 22.2266C33.8205 17.5766 33.8205 17.4875 33.7267 17.3328C33.6752 17.2438 33.5721 17.1313 33.5017 17.075L33.3705 16.9766L26.1424 16.9672C20.1517 16.9625 18.8627 16.9719 18.6189 17.0234ZM30.0002 20.9422C30.4549 21.1953 30.4689 21.7531 30.0283 22.0813C29.9017 22.1797 29.8689 22.1797 25.6174 22.1797C21.3658 22.1797 21.333 22.1797 21.2064 22.0813C20.9861 21.9172 20.8924 21.7531 20.8924 21.5328C20.8924 21.2797 21.0096 21.0688 21.2299 20.9422C21.3986 20.8484 21.4267 20.8438 25.6127 20.8438C29.7986 20.8438 29.8221 20.8438 30.0002 20.9422ZM30.0002 24.2234C30.4549 24.4766 30.4689 25.0344 30.0283 25.3625C29.9017 25.4609 29.8689 25.4609 25.6174 25.4609C21.3658 25.4609 21.333 25.4609 21.2064 25.3625C20.9861 25.1984 20.8924 25.0344 20.8924 24.8141C20.8924 24.5609 21.0096 24.35 21.2299 24.2234C21.3986 24.1297 21.4267 24.125 25.6127 24.125C29.7986 24.125 29.8221 24.125 30.0002 24.2234Z" fill="#FF2458"/>
<path d="M35.1895 24.7637C35.1707 27.023 35.166 27.1684 35.0676 27.548C34.6973 28.9777 33.6801 30.0559 32.2504 30.534L31.852 30.6652L27.4973 30.6793L23.1426 30.6934L23.1707 31.5934C23.1988 32.6059 23.2504 32.8637 23.5176 33.3746C23.8363 33.9746 24.4363 34.4574 25.1723 34.7012C25.4113 34.7809 25.7488 34.7902 30.1645 34.8137C34.702 34.8371 34.9082 34.8418 35.1051 34.9262C35.2176 34.9777 36.2441 35.6809 37.3785 36.4918C38.5176 37.3027 39.4926 37.9824 39.5535 38.0059C39.8441 38.1184 40.2098 37.9918 40.3973 37.7199L40.5004 37.5652V31.148C40.5004 24.0605 40.5145 24.4355 40.2051 23.873C39.9145 23.3527 39.5488 22.9918 39.0473 22.7246C38.5363 22.4527 38.3676 22.4293 36.7176 22.4059L35.2129 22.3824L35.1895 24.7637Z" fill="#FF2458"/>
</g>
<path d="M53.89 32.168C52.938 32.168 52.0933 31.9533 51.356 31.524C50.6187 31.0853 50.04 30.488 49.62 29.732C49.2 28.9667 48.99 28.0893 48.99 27.1C48.99 26.1107 49.2 25.238 49.62 24.482C50.04 23.7167 50.614 23.1193 51.342 22.69C52.0793 22.2513 52.924 22.032 53.876 22.032C54.548 22.032 55.1733 22.1533 55.752 22.396C56.3307 22.6293 56.8347 22.9607 57.264 23.39C57.7027 23.81 58.0387 24.2953 58.272 24.846L56.494 25.504C56.3353 25.1587 56.1253 24.86 55.864 24.608C55.6027 24.3467 55.304 24.146 54.968 24.006C54.632 23.8567 54.268 23.782 53.876 23.782C53.3067 23.782 52.798 23.9267 52.35 24.216C51.9113 24.496 51.566 24.8833 51.314 25.378C51.0713 25.8727 50.95 26.4467 50.95 27.1C50.95 27.7533 51.076 28.332 51.328 28.836C51.58 29.3307 51.93 29.7227 52.378 30.012C52.826 30.292 53.3393 30.432 53.918 30.432C54.3193 30.432 54.6833 30.3573 55.01 30.208C55.346 30.0493 55.64 29.8347 55.892 29.564C56.1533 29.2933 56.3633 28.9807 56.522 28.626L58.3 29.27C58.0667 29.8393 57.7307 30.3433 57.292 30.782C56.8627 31.2207 56.3587 31.5613 55.78 31.804C55.2013 32.0467 54.5713 32.168 53.89 32.168ZM59.5565 32V22.2H61.4045V32H59.5565ZM64.2045 32V28.416H66.0525V32H64.2045ZM64.2045 28.416C64.2045 27.94 64.1485 27.5713 64.0365 27.31C63.9245 27.0487 63.7705 26.862 63.5745 26.75C63.3785 26.6287 63.1499 26.568 62.8885 26.568C62.4125 26.5587 62.0439 26.7033 61.7825 27.002C61.5305 27.3007 61.4045 27.744 61.4045 28.332H60.7885C60.7885 27.5853 60.8959 26.9553 61.1105 26.442C61.3345 25.9193 61.6425 25.5227 62.0345 25.252C62.4359 24.972 62.9025 24.832 63.4345 24.832C63.9945 24.832 64.4659 24.944 64.8485 25.168C65.2405 25.392 65.5392 25.742 65.7445 26.218C65.9499 26.6847 66.0525 27.2913 66.0525 28.038V28.416H64.2045ZM71.8549 32L71.7989 30.586V28.458C71.7989 28.038 71.7522 27.6787 71.6589 27.38C71.5749 27.0813 71.4349 26.8527 71.2389 26.694C71.0522 26.526 70.7956 26.442 70.4689 26.442C70.1702 26.442 69.8996 26.5073 69.6569 26.638C69.4142 26.7687 69.2089 26.9693 69.0409 27.24L67.4169 26.68C67.5476 26.3813 67.7389 26.092 67.9909 25.812C68.2429 25.5227 68.5696 25.2893 68.9709 25.112C69.3816 24.9253 69.8809 24.832 70.4689 24.832C71.1782 24.832 71.7662 24.9673 72.2329 25.238C72.7089 25.5087 73.0589 25.8913 73.2829 26.386C73.5162 26.8713 73.6282 27.45 73.6189 28.122L73.5769 32H71.8549ZM69.8949 32.168C69.0549 32.168 68.4016 31.9813 67.9349 31.608C67.4776 31.2347 67.2489 30.7073 67.2489 30.026C67.2489 29.2793 67.4962 28.7193 67.9909 28.346C68.4949 27.9633 69.1996 27.772 70.1049 27.772H71.8829V29.144H70.7489C70.1422 29.144 69.7222 29.2187 69.4889 29.368C69.2556 29.508 69.1389 29.7087 69.1389 29.97C69.1389 30.1753 69.2322 30.3387 69.4189 30.46C69.6056 30.572 69.8669 30.628 70.2029 30.628C70.5109 30.628 70.7816 30.558 71.0149 30.418C71.2576 30.2687 71.4489 30.082 71.5889 29.858C71.7289 29.6247 71.7989 29.3867 71.7989 29.144H72.2469C72.2469 30.096 72.0649 30.838 71.7009 31.37C71.3462 31.902 70.7442 32.168 69.8949 32.168ZM78.0757 32.168C77.3011 32.168 76.7131 31.9767 76.3117 31.594C75.9197 31.2113 75.7237 30.6653 75.7237 29.956V22.816H77.5717V29.55C77.5717 29.8487 77.6371 30.0773 77.7677 30.236C77.8984 30.3853 78.0897 30.46 78.3417 30.46C78.4351 30.46 78.5377 30.4413 78.6497 30.404C78.7617 30.3573 78.8784 30.292 78.9997 30.208L79.6437 31.594C79.4197 31.762 79.1677 31.8973 78.8877 32C78.6171 32.112 78.3464 32.168 78.0757 32.168ZM74.5897 26.568V25H79.3217V26.568H74.5897Z" fill="#FF2458"/>
<defs>
<clipPath id="clip0_538_3899">
<rect width="24" height="24" fill="white" transform="translate(16.5 15.5)"/>
</clipPath>
</defs>
</svg>
