<svg width="103" height="55" viewBox="0 0 103 55" fill="none" xmlns="http://www.w3.org/2000/svg">
<g clip-path="url(#clip0_538_3570)">
<path d="M26.3596 15.6225C26.1486 15.8006 26.0924 15.9412 26.0315 16.4521C25.8533 17.9568 25.2393 19.3959 24.269 20.5912C23.8096 21.1584 23.4065 21.5334 22.6002 22.1381C21.7049 22.8131 21.208 23.2678 20.7346 23.8443C18.5877 26.4365 17.9315 29.7318 18.9393 32.9053C20.0361 36.3787 23.0596 38.924 26.683 39.4256C27.3627 39.524 28.633 39.524 29.3221 39.4303C31.4268 39.1396 33.3721 38.1412 34.8627 36.5943C36.3486 35.0428 37.2252 33.1725 37.4736 30.9928C37.544 30.4021 37.5018 28.9818 37.4033 28.4146C37.0658 26.5303 36.283 24.9459 34.994 23.5209C34.5065 22.9865 34.2158 22.86 33.8361 23.0193C33.6674 23.0896 33.5549 23.2303 33.2408 23.774C33.0346 24.1209 32.4768 24.8943 32.3315 25.0256C32.2471 25.1006 32.2424 25.0771 32.2565 24.1912C32.2752 23.1928 32.2143 22.6115 31.9986 21.735C31.3893 19.2225 29.7346 17.0381 27.4611 15.7396C27.0908 15.5287 27.0111 15.5006 26.7768 15.5006C26.5565 15.5006 26.4815 15.524 26.3596 15.6225Z" fill="#FF2458"/>
</g>
<path d="M55.518 32V22.2H57.436V32H55.518ZM49.064 32V22.186H50.982V32H49.064ZM50.492 27.87V26.106H56.428V27.87H50.492ZM62.688 32.168C61.9787 32.168 61.344 32.014 60.784 31.706C60.2333 31.3887 59.7993 30.9547 59.482 30.404C59.174 29.8533 59.02 29.2187 59.02 28.5C59.02 27.7813 59.174 27.1467 59.482 26.596C59.79 26.0453 60.2193 25.616 60.77 25.308C61.3207 24.9907 61.9507 24.832 62.66 24.832C63.3787 24.832 64.0133 24.9907 64.564 25.308C65.1147 25.616 65.544 26.0453 65.852 26.596C66.16 27.1467 66.314 27.7813 66.314 28.5C66.314 29.2187 66.16 29.8533 65.852 30.404C65.544 30.9547 65.1147 31.3887 64.564 31.706C64.0227 32.014 63.3973 32.168 62.688 32.168ZM62.688 30.46C63.0333 30.46 63.3367 30.376 63.598 30.208C63.8593 30.04 64.06 29.8113 64.2 29.522C64.3493 29.2233 64.424 28.8827 64.424 28.5C64.424 28.1173 64.3493 27.7813 64.2 27.492C64.0507 27.1933 63.8407 26.96 63.57 26.792C63.3087 26.624 63.0053 26.54 62.66 26.54C62.324 26.54 62.0207 26.624 61.75 26.792C61.4887 26.96 61.2833 27.1933 61.134 27.492C60.9847 27.7813 60.91 28.1173 60.91 28.5C60.91 28.8827 60.9847 29.2233 61.134 29.522C61.2833 29.8113 61.4933 30.04 61.764 30.208C62.0347 30.376 62.3427 30.46 62.688 30.46ZM67.6328 32V25H69.3688L69.4528 25.91C69.6674 25.5553 69.9428 25.2893 70.2788 25.112C70.6148 24.9253 70.9881 24.832 71.3988 24.832C71.9681 24.832 72.4441 24.9533 72.8268 25.196C73.2188 25.4387 73.5034 25.812 73.6808 26.316C73.8861 25.84 74.1754 25.476 74.5488 25.224C74.9221 24.9627 75.3561 24.832 75.8508 24.832C76.6721 24.832 77.2974 25.0933 77.7268 25.616C78.1561 26.1293 78.3708 26.9227 78.3708 27.996V32H76.5228V28.416C76.5228 27.94 76.4714 27.5713 76.3688 27.31C76.2661 27.0487 76.1261 26.862 75.9488 26.75C75.7714 26.6287 75.5614 26.568 75.3188 26.568C74.8708 26.5587 74.5254 26.7033 74.2828 27.002C74.0401 27.3007 73.9188 27.744 73.9188 28.332V32H72.0708V28.416C72.0708 27.94 72.0194 27.5713 71.9168 27.31C71.8234 27.0487 71.6834 26.862 71.4968 26.75C71.3194 26.6287 71.1094 26.568 70.8668 26.568C70.4188 26.5587 70.0734 26.7033 69.8308 27.002C69.5974 27.3007 69.4808 27.744 69.4808 28.332V32H67.6328ZM83.1057 32.168C82.4151 32.168 81.8037 32.014 81.2717 31.706C80.7397 31.3887 80.3197 30.9547 80.0117 30.404C79.7131 29.8533 79.5637 29.2187 79.5637 28.5C79.5637 27.7813 79.7177 27.1467 80.0257 26.596C80.3431 26.0453 80.7724 25.616 81.3137 25.308C81.8644 24.9907 82.4944 24.832 83.2037 24.832C83.8197 24.832 84.3844 24.9953 84.8977 25.322C85.4204 25.6393 85.8357 26.1107 86.1437 26.736C86.4611 27.352 86.6197 28.1033 86.6197 28.99H81.3137L81.4817 28.822C81.4817 29.1673 81.5657 29.4707 81.7337 29.732C81.9111 29.984 82.1351 30.18 82.4057 30.32C82.6857 30.4507 82.9844 30.516 83.3017 30.516C83.6844 30.516 83.9971 30.4367 84.2397 30.278C84.4824 30.11 84.6691 29.8953 84.7997 29.634L86.4517 30.278C86.2557 30.67 85.9991 31.0107 85.6817 31.3C85.3737 31.58 85.0051 31.7947 84.5757 31.944C84.1464 32.0933 83.6564 32.168 83.1057 32.168ZM81.5797 27.786L81.4117 27.618H84.7857L84.6317 27.786C84.6317 27.45 84.5524 27.184 84.3937 26.988C84.2351 26.7827 84.0391 26.6333 83.8057 26.54C83.5817 26.4467 83.3624 26.4 83.1477 26.4C82.9331 26.4 82.7044 26.4467 82.4617 26.54C82.2191 26.6333 82.0091 26.7827 81.8317 26.988C81.6637 27.184 81.5797 27.45 81.5797 27.786Z" fill="#FF2458"/>
<defs>
<clipPath id="clip0_538_3570">
<rect width="24" height="24" fill="white" transform="translate(16 15.5)"/>
</clipPath>
</defs>
</svg>
