<svg width="107" height="55" viewBox="0 0 107 55" fill="none" xmlns="http://www.w3.org/2000/svg">
<g clip-path="url(#clip0_538_3925)">
<path d="M26.8057 15.5328C23.6603 15.8703 20.8103 17.375 18.8041 19.7656C17.3932 21.4437 16.5166 23.3516 16.1275 25.5781C15.9916 26.3844 15.9775 28.5078 16.1088 29.3047C16.4135 31.1375 17.0228 32.6984 18.0166 34.1844C18.3588 34.6953 18.9916 35.5109 19.0525 35.5156C19.0713 35.5156 19.0994 35.4359 19.1182 35.3422C19.2119 34.8453 19.601 33.8281 19.9244 33.2281C20.4166 32.3234 20.8994 31.7 21.7057 30.9219C22.5541 30.1016 23.4728 29.4922 24.5088 29.0703C24.7853 28.9578 25.0197 28.8594 25.0291 28.8453C25.0431 28.8359 24.94 28.7422 24.8041 28.6484C23.7353 27.8844 23.0088 26.8484 22.6385 25.5687C22.09 23.6656 22.6994 21.5047 24.1853 20.0937C25.2541 19.0766 26.5197 18.5703 28.001 18.5703C29.1635 18.5703 30.1103 18.8516 31.0478 19.475C33.0494 20.8062 34.0103 23.3328 33.3635 25.5687C32.9932 26.8484 32.2666 27.8844 31.1978 28.6437C30.9728 28.8078 30.9213 28.9062 31.0619 28.9062C31.0947 28.9062 31.3572 29.0094 31.6432 29.1359C33.776 30.0547 35.515 31.8172 36.4385 33.9922C36.626 34.4422 36.8322 35.0516 36.8838 35.3422C36.9025 35.4406 36.9353 35.5156 36.9588 35.5062C37.0291 35.4781 37.7088 34.6109 38.0041 34.1609C38.9885 32.675 39.5885 31.1375 39.8932 29.3047C40.0244 28.5078 40.015 26.3891 39.8744 25.5781C39.415 22.9391 38.2291 20.6703 36.3635 18.875C34.5541 17.1312 32.44 16.0625 29.951 15.6359C29.4963 15.5562 29.1447 15.5328 28.1885 15.5234C27.5322 15.5141 26.9088 15.5187 26.8057 15.5328Z" fill="#FF2458"/>
<path d="M27.2316 19.9758C25.8816 20.257 24.8035 21.0773 24.227 22.2633C23.927 22.882 23.8145 23.3977 23.8145 24.1242C23.8145 24.5086 23.8426 24.818 23.8941 25.0336C24.0957 25.8633 24.527 26.6086 25.1316 27.1758C25.9379 27.9305 26.8895 28.3008 28.0004 28.3008C29.1113 28.3008 30.0629 27.9305 30.8691 27.1758C31.4738 26.6086 31.9051 25.8633 32.1066 25.0336C32.2285 24.5461 32.2145 23.6508 32.0832 23.1164C31.7223 21.6352 30.5363 20.4258 29.0551 20.0414C28.5676 19.9148 27.6816 19.882 27.2316 19.9758Z" fill="#FF2458"/>
<path d="M26.8523 29.8203C24.3773 30.2188 22.2914 31.6953 21.1148 33.875C20.7117 34.625 20.3648 35.6938 20.2898 36.4109L20.2617 36.7109L20.6742 37.0203C22.4555 38.3656 24.3492 39.1438 26.5148 39.4297C27.2461 39.5234 28.7555 39.5234 29.4867 39.4297C31.6523 39.1438 33.5648 38.3563 35.3273 37.025C35.8008 36.6641 35.7867 36.7016 35.6414 35.975C35.4258 34.9344 34.9477 33.8328 34.343 32.9844C33.3023 31.5359 31.6758 30.4156 29.9789 29.9891C29.0461 29.75 27.7289 29.6797 26.8523 29.8203Z" fill="#FF2458"/>
</g>
<path d="M49.064 32V22.2H52.704C53.3947 22.2 54.006 22.34 54.538 22.62C55.07 22.8907 55.4853 23.2733 55.784 23.768C56.0827 24.2533 56.232 24.818 56.232 25.462C56.232 26.0967 56.0873 26.6613 55.798 27.156C55.5087 27.6507 55.112 28.0427 54.608 28.332C54.104 28.612 53.5207 28.752 52.858 28.752H50.982V32H49.064ZM50.982 26.988H52.816C53.2453 26.988 53.5953 26.848 53.866 26.568C54.146 26.2787 54.286 25.91 54.286 25.462C54.286 25.014 54.132 24.65 53.824 24.37C53.5253 24.09 53.138 23.95 52.662 23.95H50.982V26.988ZM58.6082 28.318C58.6082 27.562 58.7529 26.9367 59.0422 26.442C59.3409 25.9473 59.7189 25.5787 60.1762 25.336C60.6429 25.0933 61.1282 24.972 61.6322 24.972V26.764C61.2029 26.764 60.7969 26.8153 60.4142 26.918C60.0409 27.0207 59.7375 27.1887 59.5042 27.422C59.2709 27.6553 59.1542 27.954 59.1542 28.318H58.6082ZM57.3062 32V25H59.1542V32H57.3062ZM66.0009 32.168C65.2916 32.168 64.6569 32.014 64.0969 31.706C63.5462 31.3887 63.1122 30.9547 62.7949 30.404C62.4869 29.8533 62.3329 29.2187 62.3329 28.5C62.3329 27.7813 62.4869 27.1467 62.7949 26.596C63.1029 26.0453 63.5322 25.616 64.0829 25.308C64.6336 24.9907 65.2636 24.832 65.9729 24.832C66.6916 24.832 67.3262 24.9907 67.8769 25.308C68.4276 25.616 68.8569 26.0453 69.1649 26.596C69.4729 27.1467 69.6269 27.7813 69.6269 28.5C69.6269 29.2187 69.4729 29.8533 69.1649 30.404C68.8569 30.9547 68.4276 31.3887 67.8769 31.706C67.3356 32.014 66.7102 32.168 66.0009 32.168ZM66.0009 30.46C66.3462 30.46 66.6496 30.376 66.9109 30.208C67.1722 30.04 67.3729 29.8113 67.5129 29.522C67.6622 29.2233 67.7369 28.8827 67.7369 28.5C67.7369 28.1173 67.6622 27.7813 67.5129 27.492C67.3636 27.1933 67.1536 26.96 66.8829 26.792C66.6216 26.624 66.3182 26.54 65.9729 26.54C65.6369 26.54 65.3336 26.624 65.0629 26.792C64.8016 26.96 64.5962 27.1933 64.4469 27.492C64.2976 27.7813 64.2229 28.1173 64.2229 28.5C64.2229 28.8827 64.2976 29.2233 64.4469 29.522C64.5962 29.8113 64.8062 30.04 65.0769 30.208C65.3476 30.376 65.6556 30.46 66.0009 30.46ZM71.6457 32V24.3C71.6457 23.5533 71.837 22.9747 72.2197 22.564C72.6023 22.144 73.1857 21.934 73.9697 21.934C74.2403 21.934 74.525 21.9807 74.8237 22.074C75.1317 22.1673 75.4117 22.2793 75.6637 22.41L74.9777 23.74C74.8283 23.6653 74.693 23.6093 74.5717 23.572C74.4503 23.5347 74.3383 23.516 74.2357 23.516C73.9837 23.516 73.797 23.6047 73.6757 23.782C73.5543 23.95 73.4937 24.2253 73.4937 24.608V32H71.6457ZM70.4837 26.484V25H75.2157V26.484H70.4837ZM76.6537 32V25H78.5017V32H76.6537ZM77.5777 23.866C77.2977 23.866 77.0504 23.7633 76.8357 23.558C76.6211 23.3433 76.5137 23.0913 76.5137 22.802C76.5137 22.5127 76.6211 22.2653 76.8357 22.06C77.0504 21.8453 77.2977 21.738 77.5777 21.738C77.8671 21.738 78.1144 21.8453 78.3197 22.06C78.5344 22.2653 78.6417 22.5127 78.6417 22.802C78.6417 23.0913 78.5344 23.3433 78.3197 23.558C78.1144 23.7633 77.8671 23.866 77.5777 23.866ZM80.3058 32V22.2H82.1538V32H80.3058ZM87.0151 32.168C86.3245 32.168 85.7131 32.014 85.1811 31.706C84.6491 31.3887 84.2291 30.9547 83.9211 30.404C83.6225 29.8533 83.4731 29.2187 83.4731 28.5C83.4731 27.7813 83.6271 27.1467 83.9351 26.596C84.2525 26.0453 84.6818 25.616 85.2231 25.308C85.7738 24.9907 86.4038 24.832 87.1131 24.832C87.7291 24.832 88.2938 24.9953 88.8071 25.322C89.3298 25.6393 89.7451 26.1107 90.0531 26.736C90.3705 27.352 90.5291 28.1033 90.5291 28.99H85.2231L85.3911 28.822C85.3911 29.1673 85.4751 29.4707 85.6431 29.732C85.8205 29.984 86.0445 30.18 86.3151 30.32C86.5951 30.4507 86.8938 30.516 87.2111 30.516C87.5938 30.516 87.9065 30.4367 88.1491 30.278C88.3918 30.11 88.5785 29.8953 88.7091 29.634L90.3611 30.278C90.1651 30.67 89.9085 31.0107 89.5911 31.3C89.2831 31.58 88.9145 31.7947 88.4851 31.944C88.0558 32.0933 87.5658 32.168 87.0151 32.168ZM85.4891 27.786L85.3211 27.618H88.6951L88.5411 27.786C88.5411 27.45 88.4618 27.184 88.3031 26.988C88.1445 26.7827 87.9485 26.6333 87.7151 26.54C87.4911 26.4467 87.2718 26.4 87.0571 26.4C86.8425 26.4 86.6138 26.4467 86.3711 26.54C86.1285 26.6333 85.9185 26.7827 85.7411 26.988C85.5731 27.184 85.4891 27.45 85.4891 27.786Z" fill="#FF2458"/>
<defs>
<clipPath id="clip0_538_3925">
<rect width="24" height="24" fill="white" transform="translate(16 15.5)"/>
</clipPath>
</defs>
</svg>
