<svg width="16" height="25" viewBox="0 0 16 25" fill="none" xmlns="http://www.w3.org/2000/svg">
<path fill-rule="evenodd" clip-rule="evenodd" d="M3.99653 1.5714C4.77816 0.612546 5.96902 0 7.3 0C9.65181 0 11.5583 1.90436 11.5583 4.25429V12.779C11.5583 13.2881 11.4686 13.7762 11.3042 14.2287L3.99653 1.5714ZM0.249999 1.38301C0.111928 1.14387 0.193866 0.838071 0.433013 0.7L1.21244 0.25C1.45158 0.111929 1.75738 0.193866 1.89545 0.433013L14.9704 23.0796C15.1085 23.3187 15.0266 23.6245 14.7874 23.7626L14.008 24.2126C13.7689 24.3507 13.4631 24.2687 13.325 24.0296L0.249999 1.38301ZM13.0564 17.2636L12.0435 15.5092C12.5088 14.7036 12.775 13.7685 12.775 12.7709V10.0404C12.775 9.53483 13.18 9.125 13.6875 9.125C14.1915 9.125 14.6 9.53993 14.6 10.0404V13.0763C14.6 13.1333 14.5949 13.189 14.585 13.2431C14.4886 14.7543 13.9331 16.1406 13.0564 17.2636ZM8.2125 20.0185C8.66111 19.9626 9.09705 19.8659 9.51654 19.7323L8.57458 18.1008C8.16561 18.1984 7.73884 18.25 7.3 18.25C4.27613 18.25 1.825 15.7977 1.825 12.7709V10.0404C1.825 9.53993 1.41646 9.125 0.9125 9.125C0.405027 9.125 0 9.53483 0 10.0404V13.0763C0 13.1321 0.00508093 13.1868 0.0148085 13.2401C0.237197 16.7517 2.93881 19.5883 6.3875 20.0185V22.5083H3.34902C2.85156 22.5083 2.43333 22.9169 2.43333 23.4208C2.43333 23.9283 2.8433 24.3333 3.34902 24.3333H11.251C11.7484 24.3333 12.1667 23.9248 12.1667 23.4208C12.1667 22.9134 11.7567 22.5083 11.251 22.5083H8.2125V20.0185ZM7.3 17.0333C7.51447 17.0333 7.7253 17.0174 7.93137 16.9867L3.04167 8.51752V12.779C3.04167 15.129 4.94819 17.0333 7.3 17.0333Z" fill="white"/>
</svg>
